<?xml version="1.0" standalone="no"?>
<!DOCTYPE svg PUBLIC "-//W3C//DTD SVG 20010904//EN"
 "http://www.w3.org/TR/2001/REC-SVG-20010904/DTD/svg10.dtd">
<svg version="1.0" xmlns="http://www.w3.org/2000/svg"
 width="209.000000pt" height="209.000000pt" viewBox="0 0 209.000000 209.000000"
 preserveAspectRatio="xMidYMid meet">
<metadata>
Created by potrace 1.14, written by Peter Selinger 2001-2017
</metadata>
<g transform="translate(0.000000,209.000000) scale(0.100000,-0.100000)"
fill="#000000" stroke="none">
<path d="M856 1874 c-38 -9 -92 -24 -119 -34 -28 -11 -55 -16 -61 -13 -6 3 -8
2 -3 -2 4 -5 -21 -24 -55 -44 -35 -19 -80 -51 -102 -70 -21 -20 -44 -34 -50
-33 -6 2 -8 0 -4 -3 4 -4 -17 -34 -46 -67 -30 -33 -73 -98 -98 -146 -23 -48
-45 -89 -48 -92 -3 -3 -6 -14 -7 -25 -1 -11 -9 -58 -18 -105 -47 -241 29 -480
220 -691 19 -22 37 -39 40 -39 2 0 28 -18 56 -39 49 -37 153 -95 173 -96 5 0
11 -6 14 -14 3 -8 0 -11 -6 -7 -6 3 -14 1 -18 -5 -5 -8 -3 -9 6 -4 10 6 11 2
6 -20 -6 -25 -5 -27 8 -16 13 11 15 9 11 -11 -4 -19 -2 -21 8 -8 13 17 25 19
44 7 9 -6 11 -3 6 10 -5 15 -3 16 7 6 11 -11 10 -17 -8 -36 -12 -13 -22 -32
-21 -43 0 -10 3 -13 6 -6 3 9 72 12 294 12 237 0 296 3 326 15 32 14 162 134
145 135 -4 1 3 9 16 20 13 10 22 22 21 26 -1 3 13 21 30 39 17 18 31 37 31 42
0 4 16 25 35 46 19 21 35 42 35 47 0 5 6 13 13 17 6 4 25 27 41 51 17 24 39
50 50 58 11 8 17 14 12 14 -5 0 -2 8 7 18 19 21 23 41 14 67 -7 20 -14 20
-322 17 l-315 -3 -36 -24 c-80 -55 -221 -67 -309 -27 -27 13 -52 26 -55 30 -3
4 -14 12 -25 18 -35 19 -92 104 -110 164 -32 106 -8 226 64 317 14 18 32 33
39 33 6 0 12 4 12 10 0 5 24 22 53 37 41 21 70 27 137 31 87 4 168 -14 163
-37 -2 -5 4 -8 12 -5 8 4 15 1 15 -6 0 -6 4 -9 9 -6 11 7 43 -28 34 -38 -4 -4
-1 -5 7 -1 10 3 26 -11 47 -42 53 -78 63 -121 63 -264 l0 -129 223 2 222 3 0
135 c0 74 -3 158 -6 185 -11 83 -64 220 -111 287 -11 16 -16 33 -12 39 4 7 3
9 -4 5 -13 -8 -55 48 -44 59 4 5 2 5 -4 2 -6 -3 -28 12 -49 34 -171 181 -457
267 -709 213z m-81 -1544 c3 -6 -1 -7 -9 -4 -18 7 -21 14 -7 14 6 0 13 -4 16
-10z"/>
<path d="M1510 1736 c0 -2 7 -7 16 -10 8 -3 12 -2 9 4 -6 10 -25 14 -25 6z"/>
<path d="M696 343 c-6 -14 -5 -15 5 -6 7 7 10 15 7 18 -3 3 -9 -2 -12 -12z"/>
</g>
</svg>
